<svg height="499pt" viewBox="-1 0 499 499.31235" width="499pt" xmlns="http://www.w3.org/2000/svg"><path d="m462.234375 180.65625c21.546875-19.664062 33.921875-47.519531 33.921875-76.65625 0-28.527344-11.328125-55.144531-31.878906-74.9375-20.554688-19.78125-47.578125-30.085938-76.175782-28.9804688-47.023437 1.7890628-87.152343 36.7343748-97.394531 81.4531248-6.183593-.910156-12.382812-1.535156-18.550781-1.535156-70.574219 0-128 57.425781-128 128 0 21.296875 5.382812 42.273438 15.632812 61.054688l-159.632812 159.632812v51.3125h51.3125l12.6875-12.6875 32 32 25.734375-25.734375-8-16 7.839844-7.839844 16 8 25.738281-25.738281-32-32 79.625-79.625c18.789062 10.242188 39.765625 15.625 61.0625 15.625 46.175781 0 88.121094-24.574219 110.953125-64.472656 2.214844.28125 4.453125.472656 6.742187.472656h4.601563c27.679687 0 50.527344-21.0625 53.382813-48h.320312c13.230469 0 24-10.769531 24-24 0-7.960938-3.9375-14.96875-9.921875-19.34375zm-73.535156-164.59375c24.226562-.78125 47.089843 7.792969 64.472656 24.53125 17.398437 16.75 26.984375 39.261719 26.984375 63.40625 0 24.9375-10.6875 48.808594-29.328125 65.480469-2.175781 1.953125-4.175781 4.175781-6.078125 6.519531h-28.042969l4.800781-72h10.648438c13.230469 0 24-10.769531 24-24s-10.769531-24-24-24h-1.03125c-12.585938 0-23.105469 9.839844-23.945312 22.410156l-.640626 9.589844h-28.765624l-.640626-9.589844c-.839843-12.570312-11.359374-22.410156-23.945312-22.410156h-1.03125c-13.230469 0-24 10.769531-24 24s10.769531 24 24 24h10.648438l4.800781 72h-28.121094c-1.96875-2.433594-4.023437-4.742188-6.257813-6.75-19.046874-17.1875-29.628906-41.722656-29.046874-67.320312 1.046874-45.609376 38.960937-84.121094 84.519531-85.867188zm-5.0625 159.9375-4.800781-72h26.632812l-4.800781 72zm38.933593-88 .570313-8.527344c.28125-4.191406 3.792969-7.472656 7.984375-7.472656h1.03125c4.40625 0 8 3.585938 8 8 0 4.417969-3.59375 8-8 8zm-60.832031 0h-9.582031c-4.40625 0-8-3.582031-8-8 0-4.414062 3.59375-8 8-8h1.03125c4.191406 0 7.703125 3.28125 7.984375 7.472656zm-39.6875 92.671875c-5.964843 4.375-9.894531 11.375-9.894531 19.328125 0 12.527344 9.6875 22.726562 21.945312 23.792969-7.074218 28-32.28125 48.207031-61.945312 48.207031-35.289062 0-64-28.710938-64-64s28.710938-64 64-64c9.398438 0 18.457031 2.128906 26.992188 6.128906 5.65625 11.367188 13.304687 21.777344 22.902343 30.542969zm-181.207031 251.328125-6.261719 6.265625-16-8-24.160156 24.160156 8 16-6.265625 6.261719-20.6875-20.6875 44.6875-44.6875zm131.3125-112c-20.449219 0-40.574219-5.6875-58.207031-16.457031l-5.367188-3.277344-163.738281 163.734375h-17.375l10.34375-10.34375-11.3125-11.3125-10.34375 10.34375v-17.375l138.832031-138.832031c2.902344 7.304687 1.414063 15.960937-4.488281 21.863281l-108 108 11.3125 11.3125 108-108c12.199219-12.199219 13.816406-30.96875 4.984375-44.984375l13.09375-13.09375-3.277344-5.378906c-10.769531-17.621094-16.457031-37.742188-16.457031-58.199219 0-61.757812 50.238281-112 112-112 5.425781 0 10.886719.558594 16.335938 1.367188-.089844 1.402343-.273438 2.785156-.304688 4.199218-.230469 9.882813 1.089844 19.578125 3.5625 28.929688-6.371094-1.632813-12.90625-2.496094-19.59375-2.496094-44.113281 0-80 35.886719-80 80s35.886719 80 80 80c30.734375 0 57.6875-17.335938 71.054688-43.199219 5.511718 9.65625 13.921874 17.421875 24.050781 22.144531-20.378907 32.925782-56.015625 53.054688-95.105469 53.054688zm122.304688-64h-4.601563c-18.832031 0-34.351563-13.925781-37.121094-32h78.851563c-2.785156 18.074219-18.296875 32-37.128906 32zm53.695312-48h-112c-4.40625 0-8-3.582031-8-8 0-4.414062 3.59375-8 8-8h112c4.40625 0 8 3.585938 8 8 0 4.417969-3.59375 8-8 8zm0 0"/><path d="m238.164062 380.71875c5.105469 1 10.296876 1.777344 15.433594 2.3125l1.671875-15.902344c-4.671875-.496094-9.394531-1.199218-14.035156-2.113281zm0 0"/><path d="m392.15625 304c-13.230469 0-24 10.769531-24 24 0 2.433594.472656 4.738281 1.144531 6.945312-27.800781 21.285157-61.976562 33.054688-97.144531 33.054688l-3.480469-.039062-.3125 16 3.792969.039062c38.550781 0 76.03125-12.871094 106.558594-36.128906 3.839844 2.601562 8.464844 4.128906 13.441406 4.128906 13.230469 0 24-10.769531 24-24s-10.769531-24-24-24zm0 32c-4.40625 0-8-3.582031-8-8 0-4.414062 3.59375-8 8-8s8 3.585938 8 8c0 4.417969-3.59375 8-8 8zm0 0"/><path d="m195.972656 67.265625-7.632812-14.066406c-4.535156 2.464843-9.039063 5.167969-13.367188 8.050781l8.839844 13.328125c3.945312-2.609375 8.03125-5.074219 12.160156-7.3125zm0 0"/><path d="m103.234375 215.921875c5.386719 0 10.800781-1.800781 15.265625-5.488281 10.191406-8.441406 11.640625-23.59375 3.207031-33.792969-1.550781-1.878906-3.382812-3.351563-5.3125-4.625 7.875-34.101563 26.722657-64.953125 53.839844-87.367187l2.683594-2.167969-9.921875-12.542969c-1 .78125-1.984375 1.574219-2.960938 2.390625-29.726562 24.566406-50.414062 58.359375-59.128906 95.734375-4.613281.441406-9.148438 2.210938-12.988281 5.378906-4.945313 4.085938-8 9.847656-8.601563 16.222656-.609375 6.382813 1.3125 12.617188 5.390625 17.550782 4.746094 5.746094 11.609375 8.707031 18.527344 8.707031zm-5.117187-30.144531c1.496093-1.234375 3.296874-1.832032 5.09375-1.832032 2.304687 0 4.59375.992188 6.167968 2.894532 2.816406 3.410156 2.328125 8.464844-1.0625 11.265625-3.398437 2.824219-8.464844 2.335937-11.265625-1.074219v-.007812c-1.359375-1.640626-2-3.71875-1.796875-5.839844.199219-2.128906 1.214844-4.046875 2.863282-5.40625zm0 0"/></svg>